<svg width="37" height="107" viewBox="0 0 37 107" fill="none" xmlns="http://www.w3.org/2000/svg">
<g clip-path="url(#clip0_68_14)">
<path d="M8.85087 0V44.89C8.85087 44.89 4.61087 40.1 1.47087 42.58C-1.09913 44.58 0.470867 48.41 0.470867 48.41L14.3509 86.17C14.3509 86.17 17.2209 94.32 21.5109 86.17C25.8009 78.02 36.0009 58.1 36.0009 58.1C36.0009 58.1 38.0509 54.1 33.5809 53.1C29.1109 52.1 26.7509 52.71 26.7509 52.71L27.0009 4.82L8.85087 0Z" fill="#32363A"/>
<path d="M0.191406 62.61C0.191406 62.61 10.0014 103.09 15.6814 105.77C19.9114 107.77 23.9314 100.77 23.9314 100.77L36.5314 74.67C36.5314 74.67 36.8214 72.97 35.5314 72.57C35.1784 72.4768 34.8069 72.4795 34.4552 72.578C34.1036 72.6764 33.7847 72.867 33.5314 73.13L21.2914 97.84C21.2914 97.84 17.4314 103.84 14.6914 96.84C11.5514 88.84 1.47141 62 1.47141 62C1.47141 62 0.371406 61.42 0.191406 62.61Z" fill="#32363A"/>
</g>
<defs>
<clipPath id="clip0_68_14">
<rect width="36.56" height="106.13" fill="white"/>
</clipPath>
</defs>
</svg>
