<svg width="94" height="21" viewBox="0 0 94 21" fill="none" xmlns="http://www.w3.org/2000/svg">
<g clip-path="url(#clip0_68_8)">
<path d="M36.22 20.18L28 6.11999C26.9 4.25101 25.3297 2.70265 23.4455 1.62895C21.5612 0.555246 19.4287 -0.00636342 17.26 -7.68321e-06H0L8.26 14.06C9.36005 15.929 10.9303 17.4773 12.8145 18.551C14.6988 19.6247 16.8313 20.1863 19 20.18H36.22Z" fill="#32363A"/>
<path d="M64.9998 20.18L56.7198 6.12001C55.6214 4.25396 54.0543 2.70747 52.1739 1.63394C50.2935 0.560415 48.1651 -0.0028525 45.9998 1.08626e-05H28.7598L36.9998 14.06C38.0964 15.9231 39.6603 17.4678 41.537 18.5411C43.4136 19.6145 45.5379 20.1794 47.6998 20.18H64.9998Z" fill="#32363A"/>
<path d="M93.7393 20.18L85.4793 6.12C84.3827 4.25687 82.8187 2.71226 80.9421 1.6389C79.0655 0.565543 76.9412 0.000621381 74.7793 0L57.5293 0L65.7893 14.06C66.8859 15.9231 68.4499 17.4677 70.3265 18.5411C72.2031 19.6145 74.3274 20.1794 76.4893 20.18H93.7393Z" fill="#32363A"/>
</g>
<defs>
<clipPath id="clip0_68_8">
<rect width="93.74" height="20.18" fill="white"/>
</clipPath>
</defs>
</svg>
