<svg width="53" height="53" viewBox="0 0 53 53" fill="none" xmlns="http://www.w3.org/2000/svg">
<path d="M21.2473 10.2337L9.19118 1.57167C8.14139 0.82332 6.86031 0.471347 5.57553 0.578287C4.29076 0.685228 3.08549 1.24416 2.17388 2.15577C1.26226 3.06739 0.703333 4.27265 0.596392 5.55743C0.489451 6.8422 0.841425 8.12329 1.58978 9.17307L10.2518 21.2292C11.3905 22.8164 12.003 24.7206 12.003 26.674C12.003 28.6273 11.3905 30.5315 10.2518 32.1187L1.58978 44.1749C-2.0094 49.1882 4.17779 55.3754 9.19117 51.7762L21.2473 43.1142C22.8345 41.9755 24.7387 41.363 26.6921 41.363C28.6454 41.363 30.5497 41.9755 32.1368 43.1142L44.193 51.7763C45.2427 52.5246 46.5238 52.8766 47.8086 52.7696C49.0934 52.6627 50.2986 52.1038 51.2103 51.1921C52.1219 50.2805 52.6808 49.0753 52.7877 47.7905C52.8947 46.5057 52.5427 45.2246 51.7944 44.1749L43.1323 32.1187C41.9936 30.5315 41.3811 28.6273 41.3811 26.674C41.3811 24.7206 41.9936 22.8164 43.1323 21.2292L51.7944 9.17307C55.3935 4.15969 49.1993 -2.03457 44.193 1.57168L32.1368 10.2337C30.5497 11.3724 28.6454 11.9849 26.6921 11.9849C24.7387 11.9849 22.8345 11.3724 21.2473 10.2337V10.2337Z" fill="#32363A"/>
</svg>
